<?xml version="1.0" standalone="no"?>
<!DOCTYPE svg PUBLIC "-//W3C//DTD SVG 1.1//EN" "http://www.w3.org/Graphics/SVG/1.1/DTD/svg11.dtd" >
<svg xmlns="http://www.w3.org/2000/svg" xmlns:xlink="http://www.w3.org/1999/xlink" version="1.1">
<metadata>
Created by FontForge 20200314 at Mon Apr 20 09:06:57 2020
 By www-data
</metadata>
<defs>
<font id="Untitled" horiz-adv-x="1000" >
  <font-face 
    font-family="Untitled"
    font-weight="400"
    font-stretch="normal"
    units-per-em="1000"
    panose-1="0 0 0 0 0 0 0 0 0 0"
    ascent="750"
    descent="-250"
    x-height="486"
    cap-height="675"
    bbox="1 -204 978 798"
    underline-thickness="50"
    underline-position="-200"
    unicode-range="U+0020-9F99"
  />
<missing-glyph horiz-adv-x="500" 
 />
    <glyph glyph-name=".notdef" horiz-adv-x="500" 
 />
    <glyph glyph-name="_1" horiz-adv-x="0" 
 />
    <glyph glyph-name="nonmarkingreturn" horiz-adv-x="333" 
 />
    <glyph glyph-name="space" unicode=" " horiz-adv-x="500" 
 />
    <glyph glyph-name="exclam" unicode="!" horiz-adv-x="500" 
d="M151 668q3 36 23.5 55.5t60.5 20t65 -18.5t27 -47t-2 -54q-5 -30 -16.5 -119t-13.5 -109l-20 -142q-5 -36 -8.5 -65t-8.5 -47t-14 -19t-15 9q-3 4 -4 14t-4.5 31.5t-10 71.5t-21.5 151t-24.5 157t-11.5 81t-2 30zM239 27q22 0 43.5 -11t33.5 -32t12 -45q0 -23 -12 -43.5
t-32.5 -32.5t-44.5 -12t-44 12t-32 32.5t-12 44t12 44.5t33 32t43 11z" />
    <glyph glyph-name="quotedbl" unicode="&#x22;" horiz-adv-x="500" 
d="M131 429l-47 228q-5 24 -1 45t23 35t46 13q26 0 43 -12.5t24.5 -31t1.5 -46.5l-51 -231q-3 -18 -8 -26t-12 -8t-11.5 8t-7.5 26zM315 433l-44 231q-6 32 0.5 48t27 26.5t43.5 10.5q17 -1 36.5 -9.5t28 -28t0.5 -53.5l-53 -227l-5 -25q-7 -14 -16 -12q-7 0 -10.5 8
t-7.5 31z" />
    <glyph glyph-name="numbersign" unicode="#" horiz-adv-x="735" 
d="M51 149l119 22l-1 176l-118 -18v139l119 23l-1 164l143 27v-168l105 24v162l143 24l-1 -166l124 29l-34 -146l-89 -19l-1 -182l122 27l-32 -143l-89 -20v-162l-143 -27v164l-105 -19v-163l-143 -25v160l-118 -23v140zM312 198l105 19v181l-105 -22v-178z" />
    <glyph glyph-name="dollar" unicode="$" horiz-adv-x="664" 
d="M382 487v-133q6 0 27 -3.5t62.5 -17t71.5 -37.5t45.5 -59.5t14 -83.5t-26.5 -86.5t-64 -60.5t-71 -28.5t-53 -5.5h-6v-57l-117 -28v89q-5 0 -22.5 2.5t-42.5 11t-57.5 28t-57 53.5t-31.5 77l-8 41h155q2 -14 5 -28.5t16.5 -28.5t35.5 -22l7 -2v138q-11 2 -16 3l-16 3
l-58 11q-51 11 -78.5 32t-38.5 42t-14.5 44t-1.5 68t33.5 82.5t70.5 55.5t83 25l29 4l7 1v88h117v-90q3 0 17 -2t46.5 -11t59 -25.5t47.5 -44t26 -51.5l10 -47h-157q-2 9 -4.5 18.5t-14 19t-22.5 12.5zM265 490q-7 -1 -23 -4t-32 -18t-15 -34q0 -23 17.5 -36.5t46.5 -20.5
l6 -1v114zM382 102h9t27 7t28.5 19.5t7.5 31.5q-1 16 -8 27t-23 20.5t-32 13.5l-9 2v-121z" />
    <glyph glyph-name="percent" unicode="%" horiz-adv-x="986" 
d="M6 -173l827 946h145l-834 -946h-138zM243 746q52 0 101.5 -26.5t78 -76.5t28.5 -104q0 -56 -28 -104t-76 -75.5t-104 -27.5t-104 27.5t-75.5 75.5t-28 103t27.5 104q30 51 79 77t101 27zM245 641q-24 0 -46.5 -12.5t-36.5 -37t-13 -49.5q0 -26 13 -49t35 -36.5t48 -12.5
q25 0 47.5 13t35 35.5t13 49t-12.5 49.5q-14 24 -37 36.5t-46 13.5zM725 259q50 0 100 -26t78.5 -76t29 -105t-27.5 -103t-76.5 -75.5t-103.5 -27.5q-56 0 -104.5 27.5t-76 75.5t-27.5 104q0 54 28.5 104t78 76t101.5 26zM727 151q-24 0 -47.5 -13t-36.5 -35.5t-12 -49.5
q0 -28 12 -50t35 -35.5t49 -12.5q24 0 46.5 12.5t35.5 35.5t13 49.5t-13 49.5q-14 24 -36.5 36t-45.5 13z" />
    <glyph glyph-name="ampersand" unicode="&#x26;" horiz-adv-x="825" 
d="M223 347q-7 16 -12.5 31t-12 44t-9 53.5t-1.5 49.5q5 61 35 101.5t78.5 66.5t121.5 25q48 -1 89 -15.5t71 -47.5t32.5 -81.5t-8.5 -83.5q-12 -40 -37 -74.5t-55 -60t-57 -43.5l-41 -28q13 -22 23 -38t31.5 -43t43.5 -49l14 -15q12 17 20.5 30.5t27 56t22.5 60.5l6 26h142
q-10 -41 -19.5 -73t-34 -85.5t-39.5 -74.5l-19 -29q12 -8 26.5 -17t31.5 -17l76 -37l-100 -100q-12 4 -27 10t-43 21t-50 28l-19 12q-21 -13 -48 -26.5t-80 -24t-107 -10.5q-58 0 -98 12t-72.5 34t-55 60.5t-25.5 92t18 103.5q17 40 52 75.5t70 56.5zM295 217l-30 -15
t-39.5 -26t-33 -37.5t-10.5 -43.5q1 -26 16 -45t42 -28t60 -8q29 1 61 9t42 14l16 10q-12 16 -18 25l-50 63q-23 29 -36 51zM350 411q27 14 46 25.5t36 28t26.5 36t11 34.5t-2.5 27q-5 10 -17.5 20.5t-36.5 10.5q-19 -1 -35 -8.5t-24 -16t-13 -21t-6 -28.5t1 -42
q3 -36 9 -51t5 -15z" />
    <glyph glyph-name="quotesingle" unicode="'" horiz-adv-x="500" 
d="M219 434l-43 231q-6 32 0.5 48t26.5 26.5t43 10.5q17 0 36.5 -9t27.5 -28.5t1 -52.5l-53 -227l-5 -26q-7 -14 -16 -12q-8 1 -11 9.5t-7 29.5z" />
    <glyph glyph-name="parenleft" unicode="(" horiz-adv-x="392" 
d="M142 748h184q-21 -39 -32 -60.5t-23 -53t-23.5 -67.5t-19 -73.5t-10 -65t-5.5 -79t-2.5 -83t8 -80.5t17 -89.5t22.5 -77.5t30 -74t29 -60l17 -34h-188q-9 21 -16.5 40.5t-20.5 59.5t-25 88.5t-19 91.5t-11 93.5t-2 107.5t7.5 108t13.5 94.5t20.5 84t22.5 65.5z" />
    <glyph glyph-name="parenright" unicode=")" horiz-adv-x="372" 
d="M234 748q17 -43 28.5 -71.5t22 -62.5t19 -78.5t14 -95t7.5 -109t-3 -117.5q-4 -37 -11 -84.5t-17.5 -88.5t-27 -92t-22.5 -67l-14 -31h-188q13 23 20.5 38.5t26.5 59t30 74.5t21.5 73.5t17.5 89t7.5 82t-2 82.5t-5.5 77.5t-10 65t-19.5 74.5t-25.5 73.5t-21 49.5l-31 58
h183z" />
    <glyph glyph-name="asterisk" unicode="*" horiz-adv-x="538" 
d="M246 302q-67 16 -107 20t-61.5 17t-23.5 39.5t9 47t42 23.5q18 1 35.5 -9t44 -41t31.5 -36l42 -47q-5 33 -9 47.5t-24 55.5t-19 69q0 23 8.5 36t22 19.5t32.5 6.5q14 -1 26.5 -6.5t24 -19.5t12 -32.5t-12.5 -47.5q-24 -56 -27 -71l-14 -59q42 44 62 68l33 38
q12 15 23.5 22t25.5 9q17 1 31.5 -7.5t23.5 -24t10 -34t-8 -31.5q-8 -11 -34 -22t-65 -17l-96 -16q30 -8 48.5 -12t54.5 -10.5t55 -14t32 -21.5t11.5 -43.5t-22.5 -40.5t-37 -10q-24 1 -39 14t-31.5 35.5t-20.5 26.5l-55 62q9 -53 16 -77l17 -51q9 -27 10.5 -46.5
t-4.5 -32.5t-19.5 -21t-29.5 -9q-15 -1 -31 6t-23.5 17.5t-9 28.5t3.5 37q2 8 17 41.5t21 56.5l13 55q-28 -31 -37 -42.5t-27.5 -36t-38.5 -43t-42 -20.5t-39 11t-21.5 38t2.5 39t19 23t41 15l58 11z" />
    <glyph glyph-name="plus" unicode="+" horiz-adv-x="690" 
d="M299 599h85v-258h260v-84h-260v-259h-85v259h-256v84h256v258z" />
    <glyph glyph-name="comma" unicode="," horiz-adv-x="500" 
d="M203 -68q-13 6 -24.5 15t-24 31t-12.5 49t13 51q13 23 36.5 36.5t51.5 13.5q27 -1 50.5 -14t36.5 -36t13.5 -50.5t-13.5 -59.5l-40 -68l-27 -47h-99l21 42z" />
    <glyph glyph-name="hyphen" unicode="-" horiz-adv-x="687" 
d="M643 342v-85h-601v85h601z" />
    <glyph glyph-name="period" unicode="." horiz-adv-x="500" 
d="M243 129q25 0 49.5 -12.5t38 -36.5t13.5 -52q0 -27 -13.5 -50t-36.5 -36.5t-51 -13.5q-27 0 -50.5 13.5t-36.5 36.5t-13 50.5t13 50.5q13 25 38 37.5t49 12.5z" />
    <glyph glyph-name="slash" unicode="/" horiz-adv-x="750" 
d="M17 -198l575 995h137l-583 -995h-129z" />
    <glyph glyph-name="zero" unicode="0" horiz-adv-x="500" 
d="M21 483q3 36 8.5 56t14 35t18 29t26 28.5t39 25t43.5 13t62 4.5l40 1q33 0 56 -3.5t41 -11t33.5 -19t32 -29.5t24 -34t11.5 -30t6.5 -32.5t2.5 -36.5v-262q0 -37 -2 -55t-10.5 -47t-19.5 -45t-21 -24.5t-26 -17t-33 -15t-33 -9.5t-46 -4.5t-37 -1.5q-19 -1 -51.5 3t-47 8
t-33 13t-33 20.5t-29.5 31t-23 47.5t-10.5 49.5t-2.5 45.5v267zM165 267q0 -28 3 -51t15 -39t28.5 -24t47.5 -8h6q20 0 37 11t23 24t8.5 45t2.5 40v166q0 24 -5.5 50t-13.5 34.5t-24.5 15.5t-39.5 8h-21q-11 0 -26 -7t-21 -14t-13.5 -21.5t-6.5 -56.5v-173z" />
    <glyph glyph-name="one" unicode="1" horiz-adv-x="333" 
d="M122 534h-71v137h224l1 -627l-153 -53z" />
    <glyph glyph-name="two" unicode="2" horiz-adv-x="500" 
d="M161 424h-141v19v18q0 60 2.5 91.5t16.5 58t29.5 37.5t31 16.5t36 9.5t39.5 4h139q14 0 37.5 -5.5t38 -11.5t25.5 -16t19.5 -21t16.5 -27.5t11 -25.5t5 -32t3 -32.5t1 -42.5q-1 -53 -4 -76t-8 -37.5t-13 -29t-18 -27t-28.5 -21t-27 -10.5t-76.5 -10l-69 -10
q-23 -3 -32 -8t-15 -14.5t-8 -20.5l-1 -32v-10q-1 -10 3 -14q2 -3 6 -5t7 -2.5t21 -0.5h265l-58 -136h-394v162q0 48 3 64.5t8.5 39t17 40.5t24.5 29t28 18t37.5 13t55.5 9.5t41 5.5l15 3q32 5 40.5 7.5t15 12.5t8.5 30l1 37q3 48 -8 60q-10 10 -18 11t-32 1h-41
q-17 0 -28.5 -5.5t-17 -12t-8 -43t-2.5 -44.5v-14z" />
    <glyph glyph-name="three" unicode="3" horiz-adv-x="500" 
d="M117 279v131h154q10 0 24.5 3.5t20.5 9t9.5 15t3.5 36.5t-5 39q-6 13 -16.5 18.5t-27.5 5.5h-75q-27 0 -37 -8.5t-12.5 -13t-2.5 -28.5v-32h-131q0 11 -0.5 16t-0.5 26.5v40.5q2 45 15.5 71t28.5 36.5t34.5 20t58.5 9.5h189q14 0 37.5 -6.5t44.5 -22.5t32.5 -46t14 -54.5
t1.5 -55.5q-1 -36 -6 -63.5t-14 -36.5l-23 -30q17 -19 24.5 -30.5t12.5 -25t8.5 -35t3.5 -77.5q-1 -33 -3 -50t-9 -39.5t-15 -37t-25.5 -30.5t-28 -20.5t-37.5 -9.5t-35 -5h-127l-44 -1q-23 1 -46.5 7t-42.5 21t-33.5 46.5t-15.5 59t-1 49.5v30h138q0 -22 0.5 -38.5t6 -22.5
t12.5 -8t28 -2h71q25 0 39.5 10t17 37t-1.5 52q-3 20 -11.5 29.5t-22.5 9.5h-180z" />
    <glyph glyph-name="four" unicode="4" horiz-adv-x="500" 
d="M432 674v-420l62 -1l-41 -138h-21l1 -73l-143 -52v125h-274v177l285 382h131zM156 253h134v174z" />
    <glyph glyph-name="five" unicode="5" horiz-adv-x="500" 
d="M31 259v413h436l-49 -136h-246v-98q0 -4 0.5 -8t2.5 -5.5t8 0.5l16 6q11 4 30 4h107q20 0 52.5 -9t53.5 -36t27.5 -59.5t7.5 -77t0 -70.5q-1 -28 -4.5 -45t-11.5 -44.5t-19 -41.5t-23 -23t-26 -15t-32.5 -10t-42 -5.5t-102.5 0.5q-44 1 -63.5 2.5t-37 7.5t-33 17
t-25 24.5t-17.5 29.5t-13 39.5t-5 37.5l-2 65h144q-3 -20 0 -38.5t23 -32.5t56 -14q24 -1 46.5 7t30.5 24.5t8 50.5q-1 30 -5.5 45.5t-16.5 22t-31 6.5h-62q-22 0 -25 -5l-24 -29h-133z" />
    <glyph glyph-name="six" unicode="6" horiz-adv-x="500" 
d="M477 444h-147q-1 7 -2 20.5t-4 26t-13 28t-29 15.5h-60q-30 0 -43 -18.5t-15 -38.5t-1 -40v-20t3 -11t5 -4.5t8.5 5t22.5 8t35 2.5h93q24 0 39 -3t29.5 -10t25.5 -14.5t19.5 -17.5t16 -31.5t11.5 -38.5t6.5 -46.5t0.5 -68.5q-1 -22 -3.5 -41.5t-5.5 -34t-11.5 -33.5
t-19 -32.5t-22 -21.5t-26.5 -14.5t-32 -8.5t-43 -2q-42 -1 -94.5 0t-74.5 2.5t-37.5 8t-29 16.5t-20 17.5t-15.5 23.5t-15 37t-8.5 47.5t-2.5 61.5v271q0 8 3.5 39t8.5 47.5t13 32t16.5 26.5t27.5 23.5t39 17.5t50 5h154q26 0 41.5 -3.5t33 -14.5t28.5 -23t21 -30
t15.5 -40.5t7 -46.5t0.5 -54v-19zM265 277h-42q-24 -3 -38 -10t-18.5 -17.5t-3.5 -43.5q1 -34 5.5 -45t17.5 -16.5t33 -5.5q7 0 35.5 0.5t42.5 6.5t19.5 18t6 41t-2.5 40q-7 22 -14 22z" />
    <glyph glyph-name="seven" unicode="7" horiz-adv-x="500" 
d="M229 387l70 138h-279v146h451v-150l-152 -291l-115 -230h-179z" />
    <glyph glyph-name="eight" unicode="8" horiz-adv-x="500" 
d="M362 0h-194q-39 0 -50.5 3t-30.5 13t-31.5 26.5t-18.5 37t-11.5 54t-0.5 104.5q3 40 9.5 57.5t17.5 32t11 19.5q-1 4 -7 14.5t-12 27.5t-9.5 28.5t-5.5 43.5t0 58q1 10 2.5 25.5t5.5 34t16 38.5t25.5 31t24 15t24 7t24.5 3h184q33 0 43 -2.5t23.5 -9t22.5 -13.5t18.5 -23
t17.5 -42.5t9.5 -59t0.5 -54.5q-2 -23 -5.5 -46t-15.5 -43.5t-13 -23t0 -7.5q0 -2 10 -17t15.5 -29t8.5 -25t4.5 -60.5t0.5 -68.5q-2 -23 -7 -45.5t-11 -36t-23 -32t-34 -27t-38 -8.5zM283 280h-55q-23 0 -33 -3.5t-17.5 -14t-8.5 -22.5t-1.5 -48t12 -50t39.5 -14h53
q20 0 32.5 4t17 10t7 15.5t3.5 26.5v16q2 53 -11 66.5t-38 13.5zM289 415q10 2 16.5 5t13 12t8 46.5t-11 50.5t-32.5 13h-68q-26 0 -38 -16t-10 -49q0 -21 2.5 -32t9 -20.5t27.5 -9.5h83z" />
    <glyph glyph-name="nine" unicode="9" horiz-adv-x="500" 
d="M19 229h134q-1 -16 -0.5 -35.5t8.5 -31.5t23.5 -16.5t35.5 -4.5h49q27 0 41 9t20.5 19t8 23t1.5 34v64q-16 -13 -29 -18.5t-42 -5.5h-86q-54 0 -69 2.5t-31 11t-32 27t-22 42.5t-8 48t-2 59t2 67q3 39 11 62.5t22 42t30.5 28.5t33 14t35.5 4h157q43 0 57 -2.5t33 -12.5
t32 -23.5t24 -32.5t15 -33t7.5 -63t3.5 -77v-215q0 -35 -6.5 -70.5t-17 -61.5t-31 -46t-45 -27t-41.5 -8.5t-31 -1.5h-147q-19 0 -35 5t-28 10t-16.5 8t-14 13t-15 16.5t-12.5 20t-15.5 36.5t-7.5 86v34zM297 537h-75q-35 0 -41 -2t-12.5 -11t-8 -19t-2.5 -31t1 -31
q2 -16 12 -28.5t42 -12.5h84q21 0 31 12t10.5 41t-0.5 43q-2 16 -10.5 27.5t-30.5 11.5z" />
    <glyph glyph-name="colon" unicode=":" horiz-adv-x="500" 
d="M236 57q23 0 46.5 -12.5t36.5 -36t13 -49.5q0 -27 -13 -50t-35 -36.5t-48 -12.5q-26 0 -48 13t-35 36t-13 49.5t13 49.5q13 24 36 36.5t47 12.5zM236 300q23 0 46.5 -12.5t36.5 -36t13 -50t-13 -49.5t-35 -36t-48 -13t-48 13t-35 36t-13 50q0 26 13 49.5t36 36t47 12.5z
" />
    <glyph glyph-name="semicolon" unicode=";" horiz-adv-x="500" 
d="M233 302q23 0 46 -12.5t35.5 -36t13 -50t-12.5 -48.5q-12 -23 -34.5 -36t-47.5 -13q-25 -1 -47 12.5t-35 36t-12 49.5q0 25 13 49t35.5 36.5t45.5 12.5zM196 -92q-12 6 -24 13t-24 26.5t-12.5 43.5t12.5 48q13 23 35 35.5t47 13.5q25 0 47 -13t35 -36t13 -49
q-1 -25 -15.5 -60t-35.5 -64l-12 -16h-95q12 22 14 26z" />
    <glyph glyph-name="less" unicode="&#x3c;" horiz-adv-x="850" 
d="M26 300l781 397v-92l-599 -307l599 -309v-92z" />
    <glyph glyph-name="equal" unicode="=" horiz-adv-x="791" 
d="M743 492v-84h-698v84h698zM743 191v-84h-698v84h698z" />
    <glyph glyph-name="greater" unicode="&#x3e;" horiz-adv-x="850" 
d="M818 300l-781 -403v92l599 309l-599 307v92z" />
    <glyph glyph-name="question" unicode="?" horiz-adv-x="500" 
d="M254 68q-7 0 -13 7t-8 20.5t-10.5 54t-10.5 79t1 96.5q2 39 6.5 67.5t15 48.5t38.5 56.5t40 61t14 45.5t-11 40.5t-42.5 28.5t-56.5 3q-18 -5 -31.5 -14.5t-17.5 -23t12 -29.5l19 -13q12 -10 20.5 -30.5t-1 -53.5t-40 -48.5t-65 -5.5t-49.5 39t-15 65q0 34 13 67.5
t42.5 61.5t67.5 38.5t89 10.5q58 0 99.5 -12t74.5 -43.5t44.5 -73.5t-10.5 -96q-15 -39 -52 -78l-51 -55q-31 -37 -50.5 -80.5t-26.5 -83.5l-9 -61q-8 -45 -8 -61t-5.5 -22t-12.5 -6zM263 38q24 -1 46.5 -12.5t34.5 -33.5t12.5 -47.5t-11.5 -47.5q-13 -22 -34.5 -34
t-47.5 -12q-26 -1 -47 11.5t-34 34.5t-13 47t13 47q13 23 35 35t46 12z" />
    <glyph glyph-name="at" unicode="@" horiz-adv-x="866" 
d="M499 149q-22 -23 -43 -41t-52.5 -28.5t-65.5 -10.5q-44 -1 -68.5 11.5t-52.5 39.5t-26 97q0 33 13.5 69.5t27.5 62.5t34 52t46 51.5t52.5 40.5t50 20.5t44.5 5.5t56.5 -8.5t54.5 -40.5l11 -18l19 59l71 -21q-67 -180 -87 -236.5t-20 -66.5q0 -18 11 -30.5t35 -13.5
q19 -2 46 9t71 55.5t40 150.5q-3 51 -21 88.5t-43.5 72t-65.5 63t-99.5 48.5t-120.5 17q-31 -2 -61.5 -10.5t-66 -24.5t-69 -45t-54 -57.5t-36 -58.5t-24 -64t-9.5 -81t7 -83q8 -41 30 -84t56.5 -81t98.5 -68.5t148 -31.5q66 0 121 20t97.5 53t63.5 53l25 24l35 -31
q-14 -17 -30 -35t-49.5 -47t-82.5 -52.5t-95.5 -33.5t-88.5 -10q-77 -1 -157.5 32t-134 99t-75.5 129t-23.5 118t10.5 111q9 42 26.5 79.5t41 69t51.5 58t75.5 54.5t93 38t83.5 12q38 1 69 -2.5t68.5 -15.5t67 -28.5t61.5 -43t55.5 -53t42.5 -66.5t27 -73.5t8.5 -71.5
t-11.5 -82q-13 -50 -34 -78t-47.5 -52t-59.5 -43t-78 -19q-47 0 -67.5 20t-23.5 39zM455 198q26 31 46 65.5t30 68t4 62.5q-4 20 -18 36.5t-48 19.5q-29 3 -58.5 -9.5t-53.5 -35t-50.5 -62t-36.5 -73t-11 -63t15 -48.5q13 -15 33 -19.5t39 -2.5q35 2 59.5 16t49.5 45z" />
    <glyph glyph-name="A" unicode="A" horiz-adv-x="954" 
d="M354 674h230l309 -673h-208l-60 134h-313l-63 -134h-200zM364 261h211l-103 233z" />
    <glyph glyph-name="B" unicode="B" horiz-adv-x="800" 
d="M51 672h532q35 0 61 -6t45 -31.5t26 -52.5t11.5 -69t0.5 -69q-8 -44 -23 -57l-45 -46q30 -16 46.5 -30t28 -40t13 -59.5t-2.5 -80.5q-4 -34 -13.5 -59t-38 -44.5t-50 -23.5t-79.5 -4h-512v672zM230 277v-131h263q29 0 43 15.5t13 48.5q-1 20 -13 43.5t-43 23.5h-263z
M230 527v-125l249 1q24 0 39 21t14 38.5t-13 41t-39 23.5h-250z" />
    <glyph glyph-name="C" unicode="C" horiz-adv-x="812" 
d="M543 438q-2 20 -4.5 36.5t-15 33t-56.5 16.5h-118q-35 0 -55.5 -4.5t-30.5 -11.5t-18 -26t-8 -57v-162q0 -48 8.5 -66.5t18.5 -27t23.5 -12.5t59.5 -4h119q63 0 75 16.5t12 31.5l3 53l195 -1l-4 -132q-1 -29 -15 -50.5t-38.5 -35.5t-63 -24.5t-72.5 -10.5h-298
q-30 0 -74 8.5t-72 30t-40.5 42.5t-18 48t-5.5 48v329q0 19 4.5 43t17.5 43.5t40.5 41t62 31.5t68.5 10h316q31 0 59 -7.5t53 -19t45 -37.5t23 -82l6 -91h-202z" />
    <glyph glyph-name="D" unicode="D" horiz-adv-x="848" 
d="M52 672h538q47 0 87.5 -17t60.5 -42.5t35 -72t15 -78.5v-222q0 -60 -13 -108.5t-32.5 -73t-50.5 -41t-99 -16.5h-541v671zM235 519v-366h272q34 0 52.5 18t23.5 31.5t5 68.5v100q0 49 -2.5 74.5t-20 49.5t-58.5 24h-272z" />
    <glyph glyph-name="E" unicode="E" horiz-adv-x="739" 
d="M55 672h618l-47 -142h-386v-131h406l-40 -128h-366v-131h433l-47 -140h-571v672z" />
    <glyph glyph-name="F" unicode="F" horiz-adv-x="698" 
d="M645 669l-47 -146h-357v-144h379l-57 -148h-322v-188l-188 -59v685h592z" />
    <glyph glyph-name="G" unicode="G" horiz-adv-x="821" 
d="M254 672h314q51 0 88.5 -10t57.5 -29.5t31 -48t11 -68.5v-69h-192q0 20 -2.5 34.5t-14.5 26.5t-45 12h-141q-37 0 -55.5 -5t-30.5 -12t-25 -32t-13 -57v-158q0 -50 10.5 -67t31 -29t70.5 -12h153q36 0 52 11.5t15 40.5l2 58h-182v118h369v-120q0 -55 -2 -103t-15.5 -82.5
t-51.5 -52.5t-71 -18h-356q-34 0 -78.5 8.5t-72.5 38.5t-38 60.5t-14 68t-4 80.5v173q0 32 0.5 54.5t10 55t24 56.5t45 45.5t47.5 22.5z" />
    <glyph glyph-name="H" unicode="H" horiz-adv-x="833" 
d="M57 673l183 1v-258h342v258l185 -1l-1 -625l-184 -53v269h-342v-218l-182 -53z" />
    <glyph glyph-name="I" unicode="I" horiz-adv-x="310" 
d="M59 675l189 -1v-620l-189 -55v676z" />
    <glyph glyph-name="J" unicode="J" horiz-adv-x="662" 
d="M398 670l190 1v-436q0 -93 -9.5 -125t-27.5 -53.5t-47.5 -39.5t-65.5 -18h-225q-29 0 -59 9t-55 31t-38 55.5t-13 92.5v89h184v-72q0 -14 5 -25.5t18 -20t50 -8.5h32q25 0 38 8.5t18 25.5t5 48v438z" />
    <glyph glyph-name="K" unicode="K" horiz-adv-x="868" 
d="M55 671h185v-252h46l235 255h236l-300 -328l336 -343h-257l-250 263h-46v-227l-185 -43v675z" />
    <glyph glyph-name="L" unicode="L" horiz-adv-x="673" 
d="M56 672h183v-512l374 1l-56 -160h-501v671z" />
    <glyph glyph-name="M" unicode="M" horiz-adv-x="966" 
d="M26 674h268l191 -431l181 432h270v-622l-172 -53v450l-201 -444h-170l-195 449v-403l-172 -54v676z" />
    <glyph glyph-name="N" unicode="N" horiz-adv-x="855" 
d="M51 672l254 -2l303 -451v451l185 1v-671h-273l-285 420v-373l-184 -58v683z" />
    <glyph glyph-name="O" unicode="O" horiz-adv-x="863" 
d="M56 262v187q0 36 12 79.5t29.5 69.5t52 47.5t96.5 21.5h345q79 0 113.5 -24.5t52 -51t28 -65.5t10.5 -97v-175q0 -48 -6.5 -101t-25.5 -78t-39 -39.5t-47.5 -25t-84.5 -10.5h-343q-33 0 -73.5 14.5t-75 52t-35.5 83.5zM352 512q-34 -1 -54.5 -6.5t-33 -19t-18.5 -34.5
t-6 -47v-134q0 -49 7 -69.5t19 -29.5t30 -13t58 -4h141q15 0 45.5 4t40 12t18.5 33t9 62v138q0 30 -7.5 49t-20 32t-38.5 20t-53 7h-137z" />
    <glyph glyph-name="P" unicode="P" horiz-adv-x="783" 
d="M54 675h478q66 0 100.5 -21t50 -46t22 -55.5t7.5 -78t0 -98.5q-2 -75 -15.5 -114t-37 -59t-51.5 -26.5t-74 -6.5l-296 1v-131l-184 -47v682zM238 517v-188h221q41 0 57.5 21t14.5 76q-2 47 -17.5 69t-54.5 22h-221z" />
    <glyph glyph-name="Q" unicode="Q" horiz-adv-x="907" 
d="M782 197l68 -48l-88 -139l-36 25q-11 -7 -25 -14t-46 -14t-76 -7h-237q-115 0 -163.5 17t-71.5 38.5t-33.5 46t-15.5 66t-5 103.5v190q0 44 15 83t40 67t66 42t92 14h271q58 0 101 -12t70 -30t53.5 -54t26.5 -101v-199q0 -46 -2 -54zM560 151l-185 137l105 126l134 -101
v120q0 25 -17 43.5t-35 30t-45 11.5h-200q-23 0 -38.5 -9t-25 -18.5t-17 -24.5t-7.5 -33v-160q0 -44 7 -64.5t15 -32t26.5 -19t37.5 -7.5z" />
    <glyph glyph-name="R" unicode="R" horiz-adv-x="802" 
d="M53 675h487q74 0 113 -20.5t57 -58.5t22.5 -67.5t5 -81.5t-5.5 -87q-6 -31 -18.5 -49.5t-33.5 -29.5l-38 -23q22 -10 37.5 -19.5t29.5 -26.5t18.5 -36.5t4.5 -36.5l-1 -97l-190 -46v86q0 28 -9 47t-27 32t-42 14h-229l-1 -139l-180 -40v679zM234 519v-189h218q43 0 57 7
t22.5 19.5t10 55t-10.5 66.5q-10 18 -28.5 29.5t-51.5 11.5h-217z" />
    <glyph glyph-name="S" unicode="S" horiz-adv-x="818" 
d="M730 464h-189q-2 14 -4 26t-9.5 22.5t-27 17t-55.5 6.5h-121q-43 0 -56.5 -5.5t-25.5 -21t-1 -53.5q6 -25 19 -35t28 -11.5t67 -1.5h156q25 0 75.5 -2t83 -14.5t53.5 -41.5t26.5 -79t1.5 -108q-4 -60 -16.5 -84.5t-27 -39t-44.5 -26.5t-88 -12h-301q-74 0 -111.5 10.5
t-51 19t-27 24.5t-20 45.5t-5.5 62.5v48h187q-1 -24 2 -36.5t11 -20.5t17 -12t20 -4h160q40 -1 60.5 2t35.5 18.5t10 61.5q-2 19 -12.5 34t-34.5 15h-252h-83t-48.5 10t-43 31t-25 51t-8.5 69v94q0 31 12.5 66t45 54t85.5 25t100 6h244q36 0 71.5 -6t54.5 -16.5t32.5 -27.5
t19.5 -36t7 -42z" />
    <glyph glyph-name="T" unicode="T" horiz-adv-x="774" 
d="M719 673l-56 -157h-188v-477l-183 -52v529h-236v157h663z" />
    <glyph glyph-name="U" unicode="U" horiz-adv-x="813" 
d="M56 677h182v-401q0 -40 2 -55.5t10.5 -30t29 -24t61.5 -9.5h97q48 0 63.5 7t28 19t18.5 27.5t6 61.5v407h184v-467q0 -44 -7 -76t-16 -49.5t-23 -31.5t-29 -23t-54 -20.5t-92 -11.5h-258q-41 0 -72.5 10.5t-50.5 21t-31.5 23.5t-22.5 31t-18 48.5t-8 75.5v467z" />
    <glyph glyph-name="V" unicode="V" horiz-adv-x="911" 
d="M641 672h216l-292 -672h-219l-299 673h219l193 -432z" />
    <glyph glyph-name="W" unicode="W" horiz-adv-x="991" 
d="M22 673h178l91 -361l85 361h221l94 -356l97 358h176l-168 -676h-217l-91 382l-93 -382h-215z" />
    <glyph glyph-name="X" unicode="X" horiz-adv-x="877" 
d="M31 1l270 347l-259 328h221l169 -208l163 208h224l-252 -328l257 -347h-234l-160 218l-172 -218h-227z" />
    <glyph glyph-name="Y" unicode="Y" horiz-adv-x="882" 
d="M29 674h223l188 -258l181 258h223l-315 -451v-184l-181 -52v234z" />
    <glyph glyph-name="Z" unicode="Z" horiz-adv-x="771" 
d="M52 674h630v-176l-386 -338h413l-56 -160h-597v167l377 350h-381v157z" />
    <glyph glyph-name="bracketleft" unicode="[" horiz-adv-x="325" 
d="M52 -149v896h224v-69h-75v-764h75v-63h-224z" />
    <glyph glyph-name="backslash" unicode="\" horiz-adv-x="618" 
d="M40 749h135l390 -901h-140z" />
    <glyph glyph-name="bracketright" unicode="]" horiz-adv-x="316" 
d="M266 -149h-215v64h75v764h-75v69h215v-897z" />
    <glyph glyph-name="asciicircum" unicode="^" horiz-adv-x="529" 
d="M282 753l140 -242l-14 -1l-127 108l-122 -106l-14 1z" />
    <glyph glyph-name="underscore" unicode="_" horiz-adv-x="500" 
d="M1 -28l497 -1v-97h-497v98z" />
    <glyph glyph-name="grave" unicode="`" horiz-adv-x="500" 
d="M216 433l-43 231q-6 31 0.5 47t26.5 26.5t43 10.5q17 0 36.5 -9t27.5 -28.5t1 -52.5l-53 -227l-5 -26q-7 -14 -16 -12q-7 1 -10.5 9t-7.5 31z" />
    <glyph glyph-name="a" unicode="a" horiz-adv-x="617" 
d="M235 339h-166l1 43q0 21 5.5 36t19.5 29t34.5 23t44.5 11.5t53 3.5l190 1q29 0 57.5 -8.5t49.5 -32.5t29.5 -60t8.5 -90v-261l-170 -41v39q-16 -11 -30 -18t-36 -10.5t-63 -3.5h-67q-32 0 -60 5.5t-49.5 27t-29 43t-10 57.5t2.5 68q4 28 17.5 51.5t38 37t67.5 13.5h121
q6 0 40 -2.5t41 -6.5l17 -9v32t-4.5 25.5t-16.5 19.5t-26 10.5t-28 3.5h-40q-13 0 -23.5 -4t-10.5 -8zM286 113h28q35 0 50 3.5t23.5 16.5t6.5 38q-2 15 -8.5 22t-19 10t-42.5 3h-40q-14 0 -29.5 -4.5t-23.5 -12t-9 -21t2 -20.5q3 -11 10 -18t20.5 -12t31.5 -5z" />
    <glyph glyph-name="b" unicode="b" horiz-adv-x="655" 
d="M225 52v-24l-171 -36v682h171v-235q11 12 22.5 21.5t40 19.5t59.5 13t75 -1t82 -16t60 -40.5t27 -62t7.5 -114.5t-1.5 -114q-9 -67 -34.5 -93.5t-61 -38t-67.5 -15t-78 -2.5t-76.5 10t-40.5 26zM320 356q-31 -3 -50.5 -7t-30 -13.5t-13.5 -22t-2 -50.5l1 -79
q4 -27 17 -39t37.5 -14t44.5 -2h21q26 0 44 7.5t26.5 18t10.5 31t2 53.5q0 34 -3 56t-18 43t-46 18h-41z" />
    <glyph glyph-name="c" unicode="c" horiz-adv-x="642" 
d="M576 288h-168q-4 28 -12.5 40.5t-26 18.5t-33 6.5t-29.5 0.5q-26 0 -46.5 -8t-29 -23.5t-9.5 -37t0 -68t18.5 -66.5t58.5 -18l25 1q38 2 58.5 10t21.5 28l3 30l172 -1q-4 -59 -11.5 -90.5t-25.5 -58.5t-51.5 -40.5t-110.5 -13.5h-117q-68 0 -105 12t-58 32.5t-31 44.5
t-14 64t-4 126q0 44 3.5 71t16 53t35.5 45t52.5 32.5t64.5 13.5h133q44 0 81.5 -6t65 -20.5t41 -34.5t20.5 -48t9 -50z" />
    <glyph glyph-name="d" unicode="d" horiz-adv-x="661" 
d="M425 668h179v-619l-179 -63v37q-15 -6 -25 -9.5t-25.5 -7.5t-60 -5.5t-67.5 -0.5q-45 0 -83.5 10t-61.5 29.5t-34.5 58.5t-14 104.5t1.5 110.5q6 62 27 96t52 52.5t61 23.5t82 5q54 0 80 -4t41 -11l27 -12v205zM299 363q-23 -6 -38.5 -15.5t-24 -31t-7.5 -65.5
q0 -34 2.5 -49t11 -35t21 -28t43.5 -8h45q18 -1 33.5 5t24 16t12.5 34t4.5 61.5t-6.5 60.5q-6 21 -16.5 32.5t-24.5 17.5t-40 6z" />
    <glyph glyph-name="e" unicode="e" horiz-adv-x="639" 
d="M413 498q43 -6 74 -15t51.5 -29.5t32.5 -46.5t12 -45l2 -60v-94h-353v-40q0 -19 6.5 -34.5t19.5 -23.5t49 -7q25 0 45.5 2.5t31 14.5t11.5 25l1 17h188q-7 -44 -17 -66.5t-34.5 -47.5t-56.5 -36.5t-93 -11.5h-133q-70 0 -100.5 8.5t-55.5 33t-32.5 53t-7.5 64.5v154
q0 34 7.5 69t31.5 62.5t63 40.5t99 13h158zM405 308q2 24 -1.5 40t-19.5 28t-38 14.5t-46 0.5q-28 -2 -46.5 -14t-17.5 -28l-3 -41h172z" />
    <glyph glyph-name="f" unicode="f" horiz-adv-x="488" 
d="M49 476h68q0 26 -0.5 47.5t0.5 30.5q2 23 12 42.5t24.5 34.5t35 24.5t63.5 13.5t89 4h81l-36 -119h-44q-17 0 -26 -6t-16.5 -19.5t-7.5 -32.5v-19l143 -1l-49 -128l-94 -1v-304l-175 -57v361h-68v129z" />
    <glyph glyph-name="g" unicode="g" horiz-adv-x="662" 
d="M434 485l175 -1v-466q0 -41 -7.5 -83t-24 -62.5t-36 -34t-60 -25.5t-82.5 -12h-121q-35 0 -65 4.5t-55.5 16.5t-42.5 32t-27 40.5t-10 34.5l-5 44h170q1 -14 4.5 -24t17.5 -20t33 -10h39q39 0 60 19.5t29 40t8 46.5v39q-14 -17 -28 -27t-44 -14t-53.5 -5t-39.5 0
q-32 0 -66 4.5t-61.5 17.5t-45.5 34t-29 58.5t-12 84.5t3 95q4 53 16.5 84.5t32.5 50.5t44.5 31.5t73.5 12.5h69q38 0 67 -4.5t42 -11.5l31 -16v26zM304 144l52 -1q22 0 40.5 6t28 23t9.5 42v76q0 22 -7 36.5t-21.5 24t-50.5 9.5h-34q-43 0 -62 -8.5t-27.5 -31.5t-8.5 -76.5
t7 -67.5q8 -14 24.5 -22.5t49.5 -9.5z" />
    <glyph glyph-name="h" unicode="h" horiz-adv-x="627" 
d="M57 675h171l1 -231q6 10 18 23t52 20.5t84 5.5q38 -1 66 -7.5t51.5 -19.5t40 -38.5t24 -59.5t7.5 -107l-1 -218l-173 -49l-1 258q0 67 -14.5 86t-37.5 22.5t-42 1.5q-20 -2 -35 -8t-27.5 -23t-12.5 -119l1 -173l-172 -46v682z" />
    <glyph glyph-name="i" unicode="i" horiz-adv-x="298" 
d="M62 470h176l-1 -420l-175 -66v486zM146 697l50 -13l36 -36l14 -50l-14 -49q-13 -23 -36 -36.5t-50 -13.5q-26 0 -49 13.5t-36 36.5l-13 49l13 50l36 36z" />
    <glyph glyph-name="j" unicode="j" horiz-adv-x="309" 
d="M86 443h176v-530l-127 -113h-128v113h79v530zM174 702l50 -14l36 -36l13 -49l-13 -50q-13 -23 -36.5 -36t-49.5 -13q-27 -1 -49.5 12.5t-36.5 36.5l-13 50l13 49l37 36z" />
    <glyph glyph-name="k" unicode="k" horiz-adv-x="658" 
d="M50 670h172l-1 -359h17l141 180h213l-196 -242l203 -249h-223l-143 187h-11v-153l-172 -48v684z" />
    <glyph glyph-name="l" unicode="l" horiz-adv-x="457" 
d="M54 673h175v-532h173l-65 -141h-283v673z" />
    <glyph glyph-name="m" unicode="m" horiz-adv-x="953" 
d="M52 485h168l1 -51q12 17 26.5 31t48 20t75 5t77 -14.5t47.5 -30.5l33 -43q18 32 34 48t47 27.5t77 13.5q30 1 66.5 -3.5t64.5 -18.5t44.5 -38.5t27.5 -57t11 -128.5v-203l-170 -53l1 225q0 53 -2 74.5t-11 38.5t-29.5 26t-45.5 5q-34 -6 -50 -23.5t-22 -40.5t-6 -84v-173
l-175 -46v232q0 68 -6 86.5t-27 34.5t-59 10q-24 -3 -42 -16t-27 -33.5t-8 -81.5v-184l-169 -43v489z" />
    <glyph glyph-name="n" unicode="n" horiz-adv-x="634" 
d="M574 38l-176 -45l1 241q0 41 -6.5 66t-25 38t-53.5 13q-34 -1 -53 -13.5t-28.5 -32.5t-9.5 -74l1 -189l-171 -49v492h171v-48q13 15 23 23t28 16t42 11t73 2q50 -3 78.5 -10t51 -24.5t33.5 -39t15.5 -49t4.5 -126.5z" />
    <glyph glyph-name="o" unicode="o" horiz-adv-x="651" 
d="M589 326v-139q0 -28 -3.5 -55t-12 -52.5t-22.5 -40.5t-35.5 -23t-48 -13t-57.5 -5h-183q-27 0 -50.5 4.5t-46 13.5t-34.5 22.5t-21.5 33.5t-15.5 49.5t-6 63.5v141q0 30 5.5 56t15 42t24 28.5t36 21t48 13t48.5 4.5h181q29 0 56.5 -6t48 -15t34 -23t21 -29.5t13 -41
t5.5 -50.5zM335 356h-25q-20 0 -34.5 -3.5t-26 -12t-18.5 -24.5t-7 -35v-74q0 -19 5.5 -36t15.5 -26t26.5 -13.5t38.5 -4.5h24q22 0 37 8t22.5 17t11.5 24t4 30v75q0 21 -7.5 36.5t-17 23.5t-21 11.5t-28.5 3.5z" />
    <glyph glyph-name="p" unicode="p" horiz-adv-x="664" 
d="M221 -164l-167 -40l-1 693h168v-28q15 12 30.5 20.5t43.5 10.5t70 3.5t58 0.5q48 -2 83 -15.5t53 -33t25.5 -44.5t11.5 -68.5t4 -63.5t-2 -78q-3 -62 -10.5 -83.5t-19.5 -39.5t-33 -34t-69 -25t-68 -10q-28 -2 -62.5 1.5t-60 11.5t-36.5 17l-18 13v-208zM333 135
q30 1 43 7.5t22 20.5t11.5 31t3 49t-1.5 49q-2 18 -8 32.5t-17 24t-22 12.5t-28 4t-38 0t-37.5 -5t-27.5 -19t-11 -42v-58q0 -47 4 -61t11 -22t21 -15t33.5 -8t41.5 0z" />
    <glyph glyph-name="q" unicode="q" horiz-adv-x="664" 
d="M417 474l1 16h185v-636l-186 -58v235q-18 -13 -30.5 -19.5t-49.5 -11t-82 -3.5q-35 1 -67 5.5t-56 14.5t-36 22.5t-22.5 34t-16 48t-6.5 67t-1 103.5q1 46 5 72t14 48t26.5 38t37.5 27t49.5 14.5t57.5 3.5h37l64 1q39 -1 53 -9zM318 134h18q12 0 28 3.5t25.5 10t18.5 23
t9 41.5v74q0 26 -9 44.5t-21.5 26t-26.5 8.5t-39 2l-21 1q-18 0 -30.5 -2.5t-21.5 -11t-13.5 -21.5t-4.5 -28v-74q0 -38 5.5 -53.5t12.5 -23.5t18.5 -14t51.5 -6z" />
    <glyph glyph-name="r" unicode="r" horiz-adv-x="557" 
d="M54 488h169l-1 -33q16 13 33.5 23t43.5 12.5t48 2t44.5 -5.5t43.5 -16.5t37 -37.5t20 -55t5 -72v-33h-170q-2 23 -5 38.5t-11.5 26t-21.5 13.5t-22 1q-21 -4 -32.5 -22t-11.5 -50l-1 -237l-168 -49v494z" />
    <glyph glyph-name="s" unicode="s" horiz-adv-x="648" 
d="M55 154h188q3 -16 7.5 -24.5t13 -12.5t32.5 -6.5t28 -2.5h5q34 0 50 7t21 17t0 30q-3 13 -8.5 18.5t-21 7t-38.5 1.5h-55h-51l-54 5q-29 3 -48 8.5t-35.5 26.5t-23.5 42t-8.5 37t0.5 44q1 36 8.5 61t28.5 44t51.5 27.5t95.5 8.5h157q39 0 60.5 -2.5t43.5 -11t42 -31
t21 -47.5l3 -49h-181q-5 15 -10.5 21t-14.5 10t-36 4h-22q-25 0 -40 -5t-20.5 -12.5t-4.5 -21.5q0 -13 6.5 -22t18 -13t49.5 -4h74q22 0 51.5 -1.5t50.5 -4t41 -13t33.5 -28.5t18.5 -33.5t5.5 -47.5t-0.5 -54q-4 -41 -18 -64t-46 -38t-73.5 -21t-82.5 -6h-104q-35 0 -84.5 3
t-74.5 21.5t-35.5 44.5t-10.5 42z" />
    <glyph glyph-name="t" unicode="t" horiz-adv-x="577" 
d="M58 491h58v110h170v-110h228l-43 -120l-185 -1v-167q0 -40 2 -52.5t12 -24t32 -5.5q11 3 21 15t9 24l1 40h156q-1 -25 -2.5 -51.5t-8 -53.5t-21 -46t-34.5 -30.5t-46.5 -15t-79.5 -3.5q-73 -1 -110.5 5.5t-58.5 25t-30.5 44t-10.5 41t-1 97.5v157h-58v121z" />
    <glyph glyph-name="u" unicode="u" horiz-adv-x="651" 
d="M234 486v-256q0 -26 4.5 -44t10 -25.5t20 -16.5t32.5 -11q10 -1 29 1t38.5 7t30.5 18.5t11 72.5v258h177l1 -433l-179 -55l1 36q-11 -10 -22 -16.5t-33.5 -14t-53.5 -7.5q-20 -2 -62 0t-74 12.5t-54 32t-33 50.5t-14 59.5t-3 114.5v217h173z" />
    <glyph glyph-name="v" unicode="v" horiz-adv-x="687" 
d="M451 493l191 -1l-184 -493h-225l-188 493l202 1l103 -288z" />
    <glyph glyph-name="w" unicode="w" horiz-adv-x="950" 
d="M470 235l-70 -239h-207l-144 490l165 -1l83 -285l89 285h178l85 -285l79 285l176 1l-145 -490h-213z" />
    <glyph glyph-name="x" unicode="x" horiz-adv-x="657" 
d="M48 490h204l68 -113l67 112l203 1l-160 -248l166 -241h-218l-59 99l-62 -101l-190 -1l140 230z" />
    <glyph glyph-name="y" unicode="y" horiz-adv-x="663" 
d="M423 490h192l-182 -498q-38 -103 -51.5 -129.5t-30 -39t-33 -18t-48.5 -5.5h-94v122q12 -1 22.5 -0.5t19 4.5t18.5 23t18 41l8 23h-48l-182 477h184l108 -286z" />
    <glyph glyph-name="z" unicode="z" horiz-adv-x="563" 
d="M55 487h439v-143l-232 -223h250l-43 -123h-419v153l224 206h-219v130z" />
    <glyph glyph-name="braceleft" unicode="{" horiz-adv-x="402" 
d="M155 444q3 53 4.5 102t3.5 71.5t14.5 46t43.5 44.5t55 29t43 11t20 -2t0 -9q-2 -5 -10.5 -12.5t-20.5 -20t-21 -31t-11 -53.5t-3 -89.5t-5 -91t-16 -61t-30.5 -44t-33.5 -26.5l-11 -7q8 -5 20 -13.5t31 -27.5t29 -48.5t12.5 -100.5t3 -98.5t2.5 -43.5t7 -35t14 -31.5
t22 -23t16 -15t3.5 -8t-3.5 -8t-20 -0.5q-19 3 -37.5 11t-40 19.5t-41 27t-25 32t-7.5 40.5t-2 83.5t-5 97.5t-18.5 61.5t-31.5 38.5t-32.5 21.5t-18 9t-5.5 7t6 12.5q3 3 18 8.5t27.5 15t23.5 24t17 33t13 54.5z" />
    <glyph glyph-name="bar" unicode="|" horiz-adv-x="500" 
d="M187 -198v996h97v-996h-97z" />
    <glyph glyph-name="braceright" unicode="}" horiz-adv-x="397" 
d="M219 301q-8 4 -18.5 10.5t-27.5 24.5t-29 42.5t-16.5 62t-5.5 93t-3 88.5t-11 51.5t-21 31.5t-21 20t-9.5 11.5t1 9.5t22.5 2q15 -3 39 -11t55.5 -29t43.5 -44.5t15 -50.5t3 -82t4.5 -86.5t12 -52.5t18 -35.5t23 -24t27.5 -15t21 -11t3 -12.5q-2 -2 -5.5 -4.5t-18 -9
t-32.5 -21.5t-31 -38t-18.5 -63.5t-5.5 -100.5t-1 -81q-2 -21 -8.5 -38t-24.5 -32t-41.5 -27.5t-40.5 -20t-34.5 -10.5t-21.5 1t-4 7.5t3 7.5t15.5 14t22.5 24t14.5 32t6 34t3.5 49l4 109q2 57 11.5 86t29 48.5t35.5 30z" />
    <glyph glyph-name="asciitilde" unicode="~" horiz-adv-x="500" 
d="M130 594q3 7 11.5 20t15.5 22.5t14 17t14.5 11.5t15.5 4q7 -1 12.5 -4.5t29.5 -21t39.5 -25t26.5 -6.5q15 1 27.5 12.5t22 24.5t13.5 16.5t6 4t5 -2t0 -12.5q-3 -9 -6 -16.5t-10 -20t-15.5 -24.5t-23 -27.5t-26.5 -17.5q-8 -1 -16 2t-29 19t-36 25.5t-26 10.5
q-9 0 -18.5 -4.5t-14.5 -10t-16 -17t-15 -18.5t-7 -8t-7 5t4 22z" />
    <glyph glyph-name="uni4E00" unicode="&#x4e00;" 
d="M54 378h907l-58 -126h-849v126z" />
    <glyph glyph-name="uni4E2A" unicode="&#x4e2a;" 
d="M367 744h262l334 -307h-240l-227 210l-220 -210h-244zM566 536v-638l-171 -74v712h171z" />
    <glyph glyph-name="uni4EA4" unicode="&#x4ea4;" 
d="M625 99l335 -246h-255l-206 153l-209 -153h-263l341 250l-281 206h253l154 -114l166 122h262zM61 592v112h336q5 11 13 25.5t32 28.5t51.5 14t53.5 -15t36 -36l8 -17h370l-40 -112h-860zM594 543h202l143 -176h-197zM404 543l-146 -172h-195l148 172h193z" />
    <glyph glyph-name="uni4EBA" unicode="&#x4eba;" 
d="M441 760h186l-123 -283h139l301 -625l-196 -1l-267 561l-233 -566h-188z" />
    <glyph glyph-name="uni4FE1" unicode="&#x4fe1;" 
d="M532 697q3 12 10.5 31.5t32.5 34t50 14.5q24 -1 49 -15t31 -31l13 -34h240l-46 -100h-614l1 100h233zM312 527h638l-46 -99h-592v99zM312 341h640l-48 -104h-592v104zM312 180l623 1v-221l-150 -102h-473v322zM468 80v-122h312l-1 123zM142 756h165l-48 -169v-678
l-155 -68v582h-67z" />
    <glyph glyph-name="uni5177" unicode="&#x5177;" 
d="M810 3l121 -149h-185l-121 149h-258l-121 -149h-185l121 149h-121v101h29v645h813v-645h49l-46 -101h-96zM739 104v546h-486v-60h471l-46 -99h-425v-67h473l-47 -99h-426v-65h475l-47 -99h-428v-57h486z" />
    <glyph glyph-name="uni52C7" unicode="&#x52c7;" 
d="M578 196v-18l-155 -51v69h-200v-17l-156 -50v444h199l-34 41h172l65 -41h112l97 74h-611l-2 95h864v-71l-125 -98h132v-389l-155 -49v142l-35 -80zM578 337v-47h203v128l-35 -81h-168zM423 337h-200v-47h200v47zM423 478h-200v-47h200v47zM578 478v-47h203v47h-203z
M372 119h561v-152l-157 -123h-261v107h264v58h-464l-85 -160h-169l84 160h-78v110h135l17 30h171z" />
    <glyph glyph-name="uni5355" unicode="&#x5355;" 
d="M62 54h360v91h-360v555h58l-33 59h176l34 -59h419l33 59h173l-32 -59h50v-454l-97 -102l-267 1v-91h384l-46 -105h-338v-50l-154 -66v116h-360v105zM218 251h204v121h-204v-121zM422 477v117h-204v-117h204zM576 251h210v343h-210v-117h198l-46 -105h-152v-121z" />
    <glyph glyph-name="uni535A" unicode="&#x535a;" 
d="M559 12q34 -28 34 -67q-1 -23 -11.5 -41.5t-30 -30t-41.5 -10.5q-22 0 -41 11t-30 29.5t-11 41t11 41.5q7 13 23 26h-156v94h439v27h155v-27h44l-29 -94h-15l-1 -65l-125 -93l-92 1v91l63 1v65h-186zM47 604h59v159h148v-159h67l-48 -117h-19v-596l-148 -53v649h-59v117z
M322 719h226v46h153v-46h55l-16 31h139l17 -31h54l-38 -94h-211v-50h225v-386l-147 -49v134l-39 -72h-39l1 -35l-154 -42v77h-75v-39l-147 -42v454h222v50h-226v94zM779 416l-33 -74h-44v-48h77v122zM701 435l78 -1v45h-78v-44zM548 435v44h-75v-44h75zM548 294v49h-75v-49
h75z" />
    <glyph glyph-name="uni5668" unicode="&#x5668;" 
d="M652 332l286 -175h-233l-205 127l-205 -127h-233l285 175h-278v91h349v29h163v-29h144l-17 35h134l17 -35h85l-41 -91h-251zM935 743v-164l-138 -109h-270v273h408zM675 646v-82h112v82h-112zM472 743v-171l-138 -108h-271v279h409zM212 646v-86h112v86h-112zM935 126
v-164l-138 -108h-270v272h408zM675 30v-81l112 -1v82h-112zM474 126v-164l-139 -108h-270v272h409zM213 30v-81l112 -1l1 82h-113z" />
    <glyph glyph-name="uni591A" unicode="&#x591a;" 
d="M307 612l-49 -49h-201l192 193h201l-33 -34h507v-104l-189 -207l-187 -85l-470 -1v113l481 1l165 173h-417zM301 174l-51 -51h-199l193 192h196l-31 -31h519v-98l-224 -243l-185 -84l-450 -1v114h458l190 201zM455 609q20 -1 40.5 -11.5t31.5 -30t11.5 -43t-10.5 -41.5
q-11 -20 -31 -31t-42 -11q-23 -1 -42.5 10.5t-30.5 31t-11.5 42t11.5 42.5t32 31t41 11zM455 157q19 0 40 -11t32.5 -30.5t11.5 -42.5q-1 -23 -11.5 -42.5t-30.5 -30.5t-42 -11q-23 0 -42.5 11t-30.5 31t-11.5 42.5t11.5 41.5q11 20 32 31t41 11z" />
    <glyph glyph-name="uni5BA2" unicode="&#x5ba2;" 
d="M473 237l-148 -65h-302l298 124l-225 88h318l62 -24l158 63h-386l-22 -22h-164l104 141h153l-14 -21h607l-1 -90l-289 -128l337 -131h-318zM65 135h864v-178l-147 -98l-717 -1v277zM766 39h-536v-84h535zM50 525v189h358q7 14 24.5 36.5t62 21.5t69 -11t33.5 -25l13 -22
h336v-136l-154 -41v72h-587v-43z" />
    <glyph glyph-name="uni5DE5" unicode="&#x5de5;" 
d="M412 626h-357v121h887l-58 -121h-295v-644h360l-60 -121h-835v121h358v644z" />
    <glyph glyph-name="uni5E93" unicode="&#x5e93;" 
d="M620 604l-43 -77h370l-46 -106h-372l-88 -156h135v101h158v-101h213l-48 -104h-165v-95h218l-46 -103h-172v-62l-158 -63v125h-301v103h301v95h-299v112l86 148h-81v106h132l39 77h-215v-697l-155 -69v876h358q6 11 22.5 33t58 23t64 -10.5t45.5 -45.5h332l-49 -110h-294
z" />
    <glyph glyph-name="uni606F" unicode="&#x606f;" 
d="M78 182v540h149l34 35h190l-32 -35h508l1 -433l-163 -107h-687zM241 625v-55h498l-43 -98h-455v-49h498l-39 -98h-459v-48h524l-1 348h-523zM62 148h146v-236l-146 -73v309zM287 151h147l-1 -186l320 -1l-46 -107h-421zM780 157h147v-238l-146 -75zM593 170
q23 0 45 -11.5t34.5 -33.5t13 -47t-12.5 -46q-12 -22 -33.5 -34t-46.5 -12t-46 12t-34 33.5t-12 46.5q0 24 13 46.5t34.5 34t44.5 11.5z" />
    <glyph glyph-name="uni6076" unicode="&#x6076;" 
d="M62 739h891l-53 -114h-229v-279h288l-51 -114h-841v114h249v279h-254v114zM461 346h64v279h-64v-279zM76 202h147v-290l-147 -68v358zM290 201h151l-1 -240l281 1l-50 -107l-382 1zM773 196h147v-273l-147 -69v342zM583 209q23 0 47.5 -12t38 -34t13.5 -48
q0 -25 -13 -46.5t-36.5 -34.5t-49.5 -13t-49 12.5t-36.5 34.5t-13.5 47t14 47q14 23 38 35t47 12zM927 579l-84 -174h-147l84 174h147zM217 566l77 -175h-147l-77 175h147z" />
    <glyph glyph-name="uni60C5" unicode="&#x60c5;" 
d="M401 644v75h192v40h148v-40h218l-44 -92h-174v-43h216l-44 -92h-172v-41h221l-44 -91h-532v91h207v41h-185v92h185v43h-174l-42 -99l-19 1v-633l-137 -59v692h-34v-543l-133 -59v788h133v-71h34v110h137v-110h43zM395 -153v479h551v-387l-140 -90h-146v90h139v298h-257
v-45h246l-24 -74h-222v-43h246l-22 -74h-224v-84l-7 -4z" />
    <glyph glyph-name="uni620F" unicode="&#x620f;" 
d="M335 230l144 -382h-156l-63 171l-58 -171h-153l133 379l-125 336l152 -1l49 -121l59 174l-248 1v118h397v-102zM763 373l25 38h171l-175 -263l19 -186h159l-64 -112h-243l-11 110h-154l135 204l-32 299h-99v118h89l-21 180l158 -1l22 -179h212l-53 -118h-150zM861 764
q21 0 40.5 -11t31.5 -31.5t12 -41.5q0 -22 -18 -53t-66 -31q-23 -1 -42.5 10.5t-30.5 31t-11.5 42t11.5 42.5t32 31t41 11z" />
    <glyph glyph-name="uni6398" unicode="&#x6398;" 
d="M296 503h62l-62 -144v-397l-126 -113h-95v105h87v130h-115l115 281v212h-109v113h109v63h134v-63h58l-43 -114l-15 1v-74zM364 743h574v-236l-128 -108h-310v-520l-136 -49v913zM500 638v-133h294v133h-294zM529 348h107v-121h31v148h124v-148h30v121h115v-123l-92 -102
l-53 -1v-169h36v113h112v-111l-95 -104h-321v215h111v-113h33v169h-138v226z" />
    <glyph glyph-name="uni6587" unicode="&#x6587;" 
d="M500 95l-227 -242h-215l334 358l-285 305h216l177 -189l176 189h217l-285 -305l334 -358h-216zM62 566v122h334q11 19 30.5 42.5t62.5 23t68 -13.5t31 -26l15 -26h367l-55 -123z" />
    <glyph glyph-name="uni6597" unicode="&#x6597;" 
d="M653 -56l-580 -25v147l580 23v670h168v-663l137 7l-44 -147l-93 -7v-46l-168 -71v112zM349 691q26 0 52.5 -13.5t41.5 -40t15 -55.5t-15 -54t-40 -39.5t-54 -14.5q-30 -1 -55 13.5t-39.5 40.5t-14.5 54.5t15 54.5q15 27 41 40.5t53 13.5zM342 368q27 0 53 -14t41 -40
t15 -55t-14 -54q-16 -26 -40.5 -40.5t-54.5 -13.5q-30 0 -55 14t-39.5 39.5t-13.5 55.5q0 29 14.5 54.5t40.5 39.5t53 14z" />
    <glyph glyph-name="uni6B66" unicode="&#x6b66;" 
d="M64 -40l21 -1v431h147v-431h70v464h153v-127h165l-46 -104h-119v-233h203l-46 -104h-547zM77 604v103h495l-46 -103h-449zM628 556l-21 197h147l22 -197h42h114h27l-54 -100h-118l60 -502h108l-54 -110l-192 -1l-69 610l-586 -1v104h574zM868 756q19 0 40 -11t32.5 -31
t11.5 -43q-1 -23 -12 -42t-30.5 -30.5t-41.5 -11.5q-23 0 -43 11.5t-30.5 30.5t-11 42.5t10.5 42.5q12 19 33 30t41 12z" />
    <glyph glyph-name="uni6E38" unicode="&#x6e38;" 
d="M773 699h189l-44 -97h-188l-18 -42h-144l87 192h142zM283 560h-44v113h98q4 12 11 29t29 32.5t49 16t53 -15t31 -42.5l5 -20h80l-53 -113h-129v-83h167v-517l-101 -114l-50 1v113h29v400h-45v-467l-130 -62v729zM608 204h123v141l57 73h-176v106h321v-88l-69 -96v-136h91
l-52 -106h-39l-1 -140l-112 -108h-102v108h82v140h-123v106zM139 480q22 0 43.5 -11.5t33.5 -32.5t12 -45.5t-12 -44.5q-11 -21 -32.5 -33.5t-44.5 -12.5t-44 12.5t-32.5 33t-11.5 45.5q0 24 12 45.5t33 32.5t43 11zM139 746q22 0 43 -11t33 -32.5t12.5 -45.5t-12.5 -45
q-12 -20 -32.5 -32.5t-43.5 -11.5q-23 0 -44 12t-32.5 32.5t-11.5 45.5q0 24 12 45t33 32t43 11zM73 204h135v-310l-135 -61v371z" />
    <glyph glyph-name="uni70B9" unicode="&#x70b9;" 
d="M58 510h196v247h163v-49h537l-48 -110h-489v-88h514v-260l-163 -132h-710v392zM768 396h-547v-165h547v165zM278 82l-69 -224h-165l77 224h157zM450 76l64 -216h-150l-62 216h148zM659 76l66 -216h-148l-66 216h148zM872 82l66 -218h-148l-68 218h150z" />
    <glyph glyph-name="uni7231" unicode="&#x7231;" 
d="M192 244h-127v104h169l16 40h164l-16 -40h552l-59 -104h-536l-15 -39h581v-110l-183 -124l194 -117h-242l-71 44l-69 -44h-259l200 122l-159 100l233 -1l49 -26l81 49h-398l-97 -241h-163zM68 638v96l886 18l-39 -96zM327 511h-169l-75 98h160zM632 511h-168l-86 103h167
zM776 624h156l-75 -113h-157zM932 494v-89l-164 -37v43h-525v-25l-163 -27v135h852z" />
    <glyph glyph-name="uni793E" unicode="&#x793e;" 
d="M651 -22v567h-141v121h141v94h15v1h127v-1h13v-94h143l-56 -121h-87v-567h162l-56 -120l-427 -1v122zM282 306h42v-420l-150 -64v377h-128l261 381h-251v108h139q7 14 23.5 43t56.5 28t61.5 -15.5t28.5 -32.5l9 -23h101v-102zM330 342h130l33 -276h-133z" />
    <glyph glyph-name="uni7B80" unicode="&#x7b80;" 
d="M262 309h461v-331l-134 -121h-327v452zM574 -43v252h-163v-77h151l-44 -97h-107v-78h163zM717 -43h63l1 406h-358v104h505l1 -494l-100 -119h-112v103zM604 748h351l-46 -109h-35l73 -129h-147l-66 129h-26l-58 -129h-152zM146 744h373l-49 -109h-41l38 -125h-143
l-37 125h-29l-48 -125h-150zM223 362v-478l-147 -64v542h147zM301 505q19 0 38.5 -10.5t30.5 -30t11 -41t-10 -39.5q-11 -19 -30.5 -30t-39.5 -11q-22 0 -41 11t-30 29.5t-10 40.5q0 21 11 40.5t30.5 30t39.5 10.5z" />
    <glyph glyph-name="uni8005" unicode="&#x8005;" 
d="M399 393l-62 -74h594v-318l-160 -147h-669v311h-80l191 227v1h-150v102h357v100h-344v103h344v59h161v-59h363l-47 -103h-316v-100h119l21 51h153l-15 -51h82l-47 -102h-495zM256 37v-78h521v251h-521v-74h496l-46 -99h-450z" />
    <glyph glyph-name="uni804A" unicode="&#x804a;" 
d="M385 -52h147v72h-139v684l261 42l-31 -120l-117 -24v-478h26v413h113v-586l-98 -109h-162v106zM674 -171v912h249v-716l-97 -111h-38v-35zM788 20h24v614h-24v-614zM59 25h23v614h-23v106h332l-24 -105h-13v-597l25 3l-17 -113l-12 -2l-1 -35l-98 -62v90l-192 -4v105z
M251 256l-28 -85h-39l-1 -143l68 3v225zM251 272v216l-28 -86h-39v-130h67zM251 504v135h-67v-135h67z" />
    <glyph glyph-name="uni8BE6" unicode="&#x8be6;" 
d="M52 493h210v-516h73l-54 -117h-174v516h-55v117zM187 757q22 0 44 -11.5t34.5 -33t12.5 -45.5q0 -25 -12.5 -46t-33 -33t-45.5 -12q-24 0 -45 12t-33 33t-12 45.5t12 45.5q12 22 34 33.5t44 11.5zM580 424h-208v109h577l-52 -109h-163v-79h213l-51 -106h-162v-106h215
l-52 -108h-163v-136l-154 -62v198h-208v108h208v106h-201v106h201v79zM753 752h148l-61 -169h-151zM549 752l65 -169h-153l-66 169h154z" />
    <glyph glyph-name="uni91D1" unicode="&#x91d1;" 
d="M507 662l-201 -139h-242l325 225h22v-1l214 1l325 -225h-242zM64 -42h350v247h-333v103h333v79h-333v103h854l-46 -103h-312v-79h365l-46 -103h-319v-247h385l-46 -103h-852v103zM147 179h172l58 -193h-171zM872 185l-59 -192h-171l58 192h172z" />
    <glyph glyph-name="uni9F99" unicode="&#x9f99;" 
d="M675 144l1 -174h270l-56 -119h-376v155h-100l100 158v401h-158l-87 -700h-165l92 699l-136 1v119l153 -1l9 75l160 1l-7 -76h329l-20 62h159l24 -62l80 1l-51 -120l-223 1l1 -151l13 20h173z" />
    <glyph glyph-name="NULL" horiz-adv-x="0" 
 />
    <glyph glyph-name="uni8F69" unicode="&#x8f69;" 
d="M487 390h163v243h-168v118h476l-53 -118h-100v-243h153l-55 -121h-98v-380l-155 -65v445h-163v121zM258 691h205l-53 -113h-171l-47 -251h42v160h155v-160h75l-49 -105h-26v-110h79l-50 -112h-29v-109l-155 -61v170h-175v112h175v110h-182v99l50 257h-53v113h71l12 66
h140z" />
    <glyph glyph-name="uni8F95" unicode="&#x8f95;" 
d="M574 62l-68 -220h-121l94 299h-36v265h507v-161l-118 -104h-138l-1 -202h84l-42 -97l-161 -1v221zM824 310h-254v-72h253zM851 84l109 59l-13 -124l-53 -28l65 -149h-128l-116 273h124zM427 441v98h192v85h-178v97h178v36h144v-36h195l-43 -97h-153v-85h196l-43 -98h-488
zM59 117h163v103h-166v110l46 205h-44v113h61l17 94h133l-20 -94h168l-44 -113h-143l-41 -201h33v120h131v-120h66l-44 -114h-22v-103h70l-44 -112h-26v-129l-131 -51v180h-163v112z" />
    <glyph glyph-name="uni5251" unicode="&#x5251;" 
d="M25 465l211 287h176l213 -274l-186 -1l-112 147l-121 -159h-181zM60 -133v110h540l-51 -110h-489zM638 711h136v-621l-136 -62v683zM683 -37h128l1 791h134v-791l-120 -113l-143 -1v114zM54 315v110h558l-51 -110h-507zM592 254l-46 -207h-130l46 207h130zM221 254h131
l44 -207h-130zM51 254h131l44 -207h-130z" />
    <glyph glyph-name="uni4E4B" unicode="&#x4e4b;" 
d="M63 543h865v-114l-463 -394l81 -55h415l-73 -120l-413 -1l-111 83l-99 -83h-220l659 567h-641v117zM190 736h620l-71 -117h-549v117z" />
    <glyph glyph-name="uni5929" unicode="&#x5929;" 
d="M501 180l-269 -330h-202l364 447h-331v114h350v219h-354v114h905l-54 -114h-332v-219h383l-52 -114h-300l361 -447h-202z" />
    <glyph glyph-name="uni75D5" unicode="&#x75d5;" 
d="M826 -22l123 -126h-192l-289 299h188l81 -79l71 75h157zM614 721h346l-48 -111h-649v-708l-147 -59v283l-62 -35v149l62 34v123l-62 29v151l62 -30v174h316q7 13 24.5 34.5t56 21t60 -11.5t28.5 -22zM308 568h629v-295l-147 -93h-334v-226h163l-47 -105h-264v719z
M790 467h-334v-42h318l-44 -100h-274v-44h334v186z" />
  </font>
</defs>
</svg>
